HIERARCHY
ROOT Hips
{
	OFFSET	0.00	0.00	0.00
	CHANNELS 6 Xposition Yposition Zposition Zrotation Xrotation Yrotation
	JOINT LeftUpLeg
	{
		OFFSET	 0.126116	-0.014019	-0.065224
		CHANNELS 3 Zrotation Xrotation Yrotation
		JOINT LeftLeg
		{
			OFFSET	 0.000000	 0.000000	 0.569914
			CHANNELS 3 Zrotation Xrotation Yrotation
			JOINT LeftFoot
			{
				OFFSET	 0.000000	 0.000000	 0.544423
				CHANNELS 3 Zrotation Xrotation Yrotation
				JOINT LeftToeBase
				{
					OFFSET	 0.000000	 0.000000	 0.207117
					CHANNELS 3 Zrotation Xrotation Yrotation
					End Site
					{
						OFFSET	 0.000000	 0.000000	 0.207117
					}
				}
			}
		}
	}
	JOINT RightUpLeg
	{
		OFFSET	-0.124023	-0.008373	-0.065224
		CHANNELS 3 Zrotation Xrotation Yrotation
		JOINT RightLeg
		{
			OFFSET	 0.000000	 0.000000	 0.570047
			CHANNELS 3 Zrotation Xrotation Yrotation
			JOINT RightFoot
			{
				OFFSET	 0.000000	 0.000000	 0.544354
				CHANNELS 3 Zrotation Xrotation Yrotation
				JOINT RightToeBase
				{
					OFFSET	 0.000000	 0.000000	 0.207540
					CHANNELS 3 Zrotation Xrotation Yrotation
					End Site
					{
						OFFSET	 0.000000	 0.000000	 0.207540
					}
				}
			}
		}
	}
	JOINT Spine
	{
		OFFSET	 0.000184	-0.007763	 0.117403
		CHANNELS 3 Zrotation Xrotation Yrotation
		JOINT Spine1
		{
			OFFSET	 0.000000	 0.000000	 0.137269
			CHANNELS 3 Zrotation Xrotation Yrotation
			JOINT Spine2
			{
				OFFSET	 0.000000	 0.000000	 0.156879
				CHANNELS 3 Zrotation Xrotation Yrotation
				JOINT LeftShoulder
				{
					OFFSET	 0.080501	-0.002496	 0.160144
					CHANNELS 3 Zrotation Xrotation Yrotation
					JOINT LeftArm
					{
						OFFSET	 0.000000	 0.000000	 0.164363
						CHANNELS 3 Zrotation Xrotation Yrotation
						JOINT LeftForeArm
						{
							OFFSET	 0.000000	 0.000000	 0.364576
							CHANNELS 3 Zrotation Xrotation Yrotation
							JOINT LeftHand
							{
								OFFSET	 0.000000	 0.000000	 0.360812
								CHANNELS 3 Zrotation Xrotation Yrotation
								JOINT LeftHandIndex1
								{
									OFFSET	 0.000000	 0.000000	 0.086006
									CHANNELS 3 Zrotation Xrotation Yrotation
									JOINT LeftHandIndex2
									{
										OFFSET	 0.000000	 0.000000	 0.047236
										CHANNELS 3 Zrotation Xrotation Yrotation
										JOINT LeftHandIndex3
										{
											OFFSET	-0.004284	-0.000551	 0.038166
											CHANNELS 3 Zrotation Xrotation Yrotation
											End Site
											{
												OFFSET	-0.004284	-0.000551	 0.038166
											}
										}
									}
								}
							}
						}
					}
				}
				JOINT Neck
				{
					OFFSET	 0.000000	 0.000000	 0.176489
					CHANNELS 3 Zrotation Xrotation Yrotation
					JOINT Head
					{
						OFFSET	 0.000000	-0.001747	 0.077940
						CHANNELS 3 Zrotation Xrotation Yrotation
						End Site
						{
							OFFSET	 0.000000	-0.001747	 0.077940
						}
					}
				}
				JOINT RightShoulder
				{
					OFFSET	-0.080363	 0.000306	 0.159706
					CHANNELS 3 Zrotation Xrotation Yrotation
					JOINT RightArm
					{
						OFFSET	 0.000000	 0.000000	 0.164196
						CHANNELS 3 Zrotation Xrotation Yrotation
						JOINT RightForeArm
						{
							OFFSET	 0.000000	 0.000000	 0.365611
							CHANNELS 3 Zrotation Xrotation Yrotation
							JOINT RightHand
							{
								OFFSET	 0.000000	 0.000000	 0.360648
								CHANNELS 3 Zrotation Xrotation Yrotation
								JOINT RightHandIndex1
								{
									OFFSET	 0.000000	 0.000000	 0.069977
									CHANNELS 3 Zrotation Xrotation Yrotation
									JOINT RightHandIndex2
									{
										OFFSET	 0.000000	 0.000000	 0.052305
										CHANNELS 3 Zrotation Xrotation Yrotation
										JOINT RightHandIndex3
										{
											OFFSET	 0.009002	-0.000782	 0.042196
											CHANNELS 3 Zrotation Xrotation Yrotation
											End Site
											{
												OFFSET	 0.009002	-0.000782	 0.042196
											}
										}
									}
								}
							}
						}
					}
				}
			}
		}
	}
}
MOTION
Frames:    7
Frame Time: 0.03333334
-0.000577	 0.025854	 1.270966	 0.002924	 0.002411	-0.151746	 2.942155	-1.767535	 177.844200	 1.478617	-11.518790	-0.671748	-6.855953	 70.237730	 0.743857	-2.385833	 28.452760	 0.000004	-3.031760	-2.914898	-177.625200	-1.448520	-12.850840	 0.738137	 6.721147	 70.535680	-0.761061	 2.384658	 28.388730	 0.000004	-9.935972	 2.765282	-0.074403	 1.778028	 3.568083	 0.710448	-5.348794	-4.419884	-1.163581	-91.776110	 78.527420	 179.999900	 54.791710	 38.725230	-51.691860	-23.189040	 2.779731	-9.540176	-39.772150	-13.363470	-6.766117	-2.635965	 4.993658	 6.788941	-5.165319	 0.784187	 3.516649	-5.225038	 0.466231	 0.424329	-0.000002	-3.783157	-0.089647	-5.197970	 4.830292	 0.219371	 89.782130	 78.203920	 180.000000	 5.119302	 13.292890	 97.107790	-19.462880	 2.090092	 15.144930	 11.918070	-15.594710	-3.682562	 6.112037	 4.509576	-0.364401	 4.968462	 1.518543	-9.347576	 5.168945	 0.703820	 2.021906
-0.000567	 0.026645	 1.271468	 0.003478	 0.004330	-0.134010	 2.947285	-1.637404	 177.816000	 1.482102	-11.223620	-0.654078	-6.772597	 70.033040	 0.656533	-2.385833	 28.452760	 0.000004	-3.041561	-2.743761	-177.627300	-1.454254	-12.408850	 0.711922	 6.591999	 70.224590	-0.625821	 2.384658	 28.388730	 0.000004	-9.419383	 2.760584	-0.057502	 1.586019	 3.567886	 0.638091	-4.770277	-4.446857	-1.040933	-91.776150	 78.527470	 180.000000	 54.781000	 38.706410	-51.653190	-23.380540	 2.845781	-9.650946	-39.713250	-12.516110	-6.608004	-2.635965	 4.993658	 6.788941	-5.165319	 0.784187	 3.516649	-5.225038	 0.466231	 0.424329	-0.000002	-3.783157	-0.089647	-4.633277	 4.891160	 0.197977	 89.782130	 78.203890	 180.000000	 5.153749	 13.425600	 97.101120	-19.379860	 2.158286	 15.342430	 12.017000	-14.829480	-3.831285	 6.112037	 4.509576	-0.364401	 4.968462	 1.518543	-9.347576	 5.168945	 0.703820	 2.021906
-0.000544	 0.027431	 1.271936	 0.003936	 0.006134	-0.113601	 2.946505	-1.663011	 177.797700	 1.481794	-11.250340	-0.655677	-6.771085	 69.991690	 0.656270	-2.385833	 28.452760	 0.000004	-3.046828	-2.680222	-177.640200	-1.457012	-12.189700	 0.698958	 6.522104	 70.026470	-0.553465	 2.384658	 28.388730	 0.000004	-8.838932	 2.755308	-0.037219	 1.359838	 3.569438	 0.552292	-4.088534	-4.477109	-0.895745	-91.776260	 78.527450	-179.999900	 54.794700	 38.692440	-51.645760	-23.570980	 2.913377	-9.762318	-39.638940	-11.586610	-6.432285	-2.635965	 4.993658	 6.788941	-5.165319	 0.784187	 3.516649	-5.225038	 0.466231	 0.424329	-0.000002	-3.783157	-0.089647	-3.968559	 4.953078	 0.171697	 89.782160	 78.203890	 179.999900	 5.146376	 13.569750	 97.065510	-19.309410	 2.224299	 15.566660	 12.122340	-13.999310	-4.000219	 6.112037	 4.509576	-0.364401	 4.968462	 1.518543	-9.347576	 5.168945	 0.703820	 2.021906
-0.000498	 0.028204	 1.272357	 0.004220	 0.007586	-0.091124	 2.945666	-1.693402	 177.778100	 1.481352	-11.287680	-0.657911	-6.771304	 69.955980	 0.657830	-2.385833	 28.452760	 0.000004	-3.048688	-2.695234	-177.661000	-1.457705	-12.134040	 0.695669	 6.493733	 69.911560	-0.525261	 2.384658	 28.388730	 0.000004	-8.184624	 2.750075	-0.013776	 1.103682	 3.572042	 0.454498	-3.316204	-4.507443	-0.730368	-91.776180	 78.527470	 180.000000	 54.839160	 38.687890	-51.683730	-23.756100	 2.978145	-9.867927	-39.546950	-10.584640	-6.241043	-2.635965	 4.993658	 6.788941	-5.165319	 0.784187	 3.516649	-5.225038	 0.466231	 0.424329	-0.000002	-3.783157	-0.089647	-3.216480	 5.011232	 0.140773	 89.782100	 78.203890	-180.000000	 5.043309	 13.734800	 97.035510	-19.251560	 2.292651	 15.705970	 12.238700	-13.060810	-4.185765	 6.112037	 4.509576	-0.364401	 4.968462	 1.518543	-9.347576	 5.168945	 0.703820	 2.021906
-0.000415	 0.028995	 1.272657	 0.004203	 0.008515	-0.065820	 2.944815	-1.731135	 177.756800	 1.480740	-11.340210	-0.661052	-6.773577	 69.925260	 0.661571	-2.385833	 28.452760	 0.000004	-3.050482	-2.709681	-177.684400	-1.458448	-12.074110	 0.692129	 6.464012	 69.789930	-0.495740	 2.384658	 28.388730	 0.000004	-7.399174	 2.747165	-0.019455	 0.804033	 3.572507	 0.402959	-2.421000	-4.533660	-0.566382	-91.776180	 78.527470	 180.000000	 54.919790	 38.701030	-51.779620	-23.939410	 3.042916	-9.972215	-39.429350	-9.457729	-6.025018	-2.635965	 4.993658	 6.788941	-5.165319	 0.784187	 3.516649	-5.225038	 0.466231	 0.424329	-0.000002	-3.783157	-0.089647	-2.343523	 5.063249	 0.103616	 89.782130	 78.203870	 180.000000	 4.923039	 13.926280	 97.651130	-19.147980	 2.438650	 14.569090	 12.033770	-11.857440	-4.404926	 6.112037	 4.509576	-0.364401	 4.968462	 1.518543	-9.347576	 5.168945	 0.703820	 2.021906
-0.000315	 0.029727	 1.272937	 0.002709	 0.009884	-0.035563	 2.945167	-1.771484	 177.731100	 1.480049	-11.398460	-0.664539	-6.776998	 69.901610	 0.666446	-2.385833	 28.452760	 0.000004	-3.051238	-2.715583	-177.711500	-1.459339	-12.001980	 0.687869	 6.434726	 69.668120	-0.466596	 2.384658	 28.388730	 0.000004	-6.564344	 2.742589	 0.018489	 0.509481	 3.574078	 0.255637	-1.525168	-4.554794	-0.357525	-91.776210	 78.527470	-180.000000	 55.024700	 38.735840	-51.923660	-24.095680	 3.098138	-10.060140	-39.298290	-8.354215	-5.813417	-2.635965	 4.993658	 6.788941	-5.165319	 0.784187	 3.516649	-5.225038	 0.466231	 0.424329	-0.000002	-3.783157	-0.089647	-1.474266	 5.098754	 0.065630	 89.782140	 78.203890	 180.000000	 4.631575	 14.124200	 97.676300	-19.012100	 2.517361	 14.445490	 11.517560	-10.582520	-4.614188	 6.112037	 4.509576	-0.364401	 4.968462	 1.518543	-9.347576	 5.168945	 0.703820	 2.021906
-0.000221	 0.030571	 1.273498	 0.000577	 0.011406	 0.000730	 2.945754	-1.819738	 177.700200	 1.479198	-11.470180	-0.668836	-6.782300	 69.879180	 0.673420	-2.385833	 28.452760	 0.000004	-3.051798	-2.720420	-177.743900	-1.460354	-11.918830	 0.682963	 6.402720	 69.531460	-0.434806	 2.384658	 28.388730	 0.000004	-5.507787	 2.738958	 0.061373	 0.169752	 3.574379	 0.082957	-0.491026	-4.568124	-0.114681	-91.776190	 78.527470	-180.000000	 55.173290	 38.793200	-52.139610	-24.245940	 3.153062	-10.146200	-39.127010	-7.087386	-5.572105	-2.635965	 4.993658	 6.788941	-5.165319	 0.784187	 3.516649	-5.225038	 0.466231	 0.424329	-0.000002	-3.783157	-0.089647	-0.471578	 5.119484	 0.021068	 89.782210	 78.203900	 179.999900	 3.454389	 14.404120	 95.922000	-18.738860	 2.453219	 17.420300	 10.652370	-9.113465	-4.820522	 6.112037	 4.509576	-0.364401	 4.968462	 1.518543	-9.347576	 5.168945	 0.703820	 2.021906
